<?xml version="1.0" standalone="no"?>
<!DOCTYPE svg PUBLIC "-//W3C//DTD SVG 20010904//EN"
 "http://www.w3.org/TR/2001/REC-SVG-20010904/DTD/svg10.dtd">
<svg version="1.0" xmlns="http://www.w3.org/2000/svg"
 width="311.000000pt" height="311.000000pt" viewBox="0 0 311.000000 311.000000"
 preserveAspectRatio="xMidYMid meet">
<metadata>
Created by potrace 1.14, written by Peter Selinger 2001-2017
</metadata>
<g transform="translate(0.000000,311.000000) scale(0.100000,-0.100000)"
fill="#000000" stroke="none">
<path d="M370 2901 c0 -116 3 -211 7 -211 3 0 74 39 157 88 83 48 159 92 170
97 31 16 28 29 -11 50 -21 11 -76 43 -123 71 -47 27 -111 65 -142 83 l-58 32
0 -210z"/>
<path d="M915 2553 c-71 -41 -148 -85 -170 -97 -208 -112 -354 -203 -349 -216
6 -18 885 -1552 895 -1564 7 -8 114 50 394 213 50 29 115 67 145 84 90 49 130
77 130 87 0 6 -11 27 -24 48 -19 29 -251 433 -364 632 -10 19 -81 143 -157
275 -76 132 -145 251 -152 265 -62 114 -200 344 -208 346 -5 2 -68 -31 -140
-73z"/>
<path d="M1207 2573 c3 -10 9 -22 14 -28 6 -9 465 -787 522 -885 11 -19 28
-48 38 -65 10 -16 24 -41 32 -55 8 -14 38 -65 67 -115 29 -49 61 -106 72 -125
30 -53 34 -54 71 -34 81 44 747 449 747 454 0 4 -105 64 -233 135 -299 166
-746 413 -817 452 -30 17 -158 87 -284 157 -126 69 -230 126 -232 126 -2 0 -1
-8 3 -17z"/>
<path d="M364 2007 c-2 -55 -7 -284 -19 -737 -2 -80 -7 -260 -10 -400 -3 -140
-8 -335 -10 -433 -5 -187 -5 -186 38 -149 9 8 17 12 17 7 0 -4 6 -3 12 2 7 6
38 24 68 40 78 43 513 279 590 321 36 19 69 38 74 43 5 4 0 22 -11 41 -11 18
-34 58 -50 88 -17 30 -126 226 -243 435 -117 209 -264 472 -327 585 -64 113
-118 208 -122 212 -3 4 -7 -21 -7 -55z"/>
<path d="M1840 805 c-102 -58 -251 -142 -332 -187 -81 -46 -148 -87 -148 -92
0 -10 276 -504 289 -519 7 -7 629 340 660 369 12 10 11 17 -6 46 -11 18 -32
53 -45 78 -14 25 -56 99 -93 165 -37 66 -83 148 -102 183 -19 34 -36 62 -36
62 -1 0 -85 -47 -187 -105z"/>
</g>
</svg>
